<svg width="36" height="26" viewBox="0 0 36 26" fill="none" xmlns="http://www.w3.org/2000/svg">
<path d="M3.6 6H32.4C34.3882 6 36 4.6568 36 3C36 1.3432 34.3882 0 32.4 0H3.6C1.61184 0 0 1.3432 0 3C0 4.6568 1.61184 6 3.6 6Z" fill="white"/>
<path d="M3.6 16H32.4C34.3882 16 36 14.6568 36 13C36 11.3432 34.3882 10 32.4 10H3.6C1.61184 10 0 11.3432 0 13C0 14.6568 1.61184 16 3.6 16Z" fill="white"/>
<path d="M3.6 26H32.4C34.3882 26 36 24.6568 36 23C36 21.3432 34.3882 20 32.4 20H3.6C1.61184 20 0 21.3432 0 23C0 24.6568 1.61184 26 3.6 26Z" fill="white"/>
</svg>
