<svg width="328" height="266" viewBox="0 0 328 266" fill="none" xmlns="http://www.w3.org/2000/svg">
<g clip-path="url(#clip0)">
<g opacity="0.7">
<path opacity="0.7" d="M207.252 119.943C207.281 111.574 205.212 103.323 201.225 95.8985C199.332 92.4121 197.605 90.2447 196.262 88.9154C195.755 88.3948 195.093 88.0405 194.369 87.9019C193.644 87.7634 192.893 87.8475 192.22 88.1426C191.682 88.3264 191.197 88.63 190.802 89.0288C189.005 90.8321 187.381 93.2159 185.963 95.7543C181.768 103.352 179.591 111.842 179.627 120.458V125.631H176.203V65.5205C176.203 52.9214 173.292 40.4906 167.591 29.4544C164.89 24.2299 162.426 20.984 160.529 18.9883C160.07 18.481 159.504 18.0745 158.869 17.796C158.235 17.5176 157.546 17.3735 156.849 17.3735C156.153 17.3735 155.464 17.5176 154.829 17.796C154.195 18.0745 153.629 18.481 153.169 18.9883C150.602 21.6916 148.287 25.2638 146.263 29.0628C140.268 40.3257 137.223 53.1069 137.223 66.0804V125.631H134.262V120.211C134.299 111.594 132.122 103.105 127.927 95.507C126.509 92.972 124.885 90.5882 123.088 88.7815C122.57 88.2535 121.893 87.8985 121.154 87.7676C120.415 87.6367 119.652 87.7367 118.975 88.0533L119.099 88.1186C118.665 88.3044 118.273 88.5704 117.944 88.9017C116.614 90.231 114.888 92.3984 112.98 95.8848C108.993 103.309 106.925 111.56 106.953 119.929V209.799H117.518L116.366 217.187V239.277H125.002V217.187L123.85 209.799H134.262V127.956H137.223V209.431H145.66L144.448 217.184V239.277H153.088V217.187L151.875 209.435H163.245L162.032 217.187V239.277H170.672V217.187L169.46 209.435H176.196V127.956H179.62V209.923H182.396V209.799H191.575L190.423 217.187V239.277H199.063V217.187L197.91 209.799H207.252V119.943Z" fill="url(#paint0_linear)"/>
</g>
<path d="M126.722 212.88H118.543L120.003 203.259H125.261L126.722 212.88Z" fill="#535461"/>
<g opacity="0.1">
<path opacity="0.1" d="M119.596 207.079H125.669L125.261 204.389H120.003L119.596 207.079Z" fill="black"/>
</g>
<path d="M196.833 212.88H188.654L190.114 203.259H195.372L196.833 212.88Z" fill="#535461"/>
<g opacity="0.1">
<path opacity="0.1" d="M189.707 207.079H195.78L195.372 204.389H190.114L189.707 207.079Z" fill="black"/>
</g>
<path d="M153.307 212.88H145.125L146.586 203.259H151.847L153.307 212.88Z" fill="#535461"/>
<g opacity="0.1">
<path opacity="0.1" d="M146.178 207.079H152.255L151.847 204.389H146.586L146.178 207.079Z" fill="black"/>
</g>
<path d="M169.956 212.88H161.777L163.238 203.259H168.495L169.956 212.88Z" fill="#535461"/>
<g opacity="0.1">
<path opacity="0.1" d="M162.83 207.079H168.907L168.495 204.389H163.238L162.83 207.079Z" fill="black"/>
</g>
<path d="M185.147 123.725H126.722V125.988H185.147V123.725Z" fill="#535461"/>
<path d="M194.181 87.9573C193.872 87.6271 193.495 87.3632 193.075 87.1826C192.655 87.002 192.2 86.9087 191.74 86.9087C191.28 86.9087 190.825 87.002 190.405 87.1826C189.984 87.3632 189.608 87.6271 189.299 87.9573C187.597 89.7126 186.062 92.0345 184.718 94.5042C180.742 101.931 178.685 110.182 178.723 118.548V205.688H204.579V118.188C204.612 110.051 202.654 102.022 198.868 94.7584C197.074 91.3647 195.439 89.2523 194.181 87.9573Z" fill="#E0E0E0"/>
<path d="M120.039 87.9573C120.348 87.6271 120.724 87.3632 121.145 87.1826C121.565 87.002 122.02 86.9087 122.48 86.9087C122.94 86.9087 123.394 87.002 123.815 87.1826C124.235 87.3632 124.612 87.6271 124.921 87.9573C126.622 89.7126 128.157 92.0345 129.501 94.5042C133.477 101.931 135.534 110.182 135.496 118.548V205.688H109.633V118.188C109.601 110.051 111.558 102.022 115.345 94.7584C117.135 91.3647 118.77 89.2523 120.039 87.9573Z" fill="#E0E0E0"/>
<path d="M109.779 120.046L115.912 120.073V127.403H109.779V120.046Z" fill="#535461"/>
<path d="M129.352 120.046L135.486 120.073V127.403H129.352V120.046Z" fill="#535461"/>
<path d="M178.72 120.046L184.857 120.073V127.403H178.72V120.046Z" fill="#535461"/>
<path d="M198.293 120.046L204.43 120.073V127.403H198.293V120.046Z" fill="#535461"/>
<g opacity="0.1">
<path opacity="0.1" d="M129.49 94.3911C128.15 91.9214 126.612 89.5994 124.91 87.8442C124.429 87.3296 123.788 86.9816 123.084 86.8532C122.379 86.7248 121.651 86.8232 121.01 87.1332C121.38 87.3118 121.713 87.5525 121.996 87.8442C123.698 89.5994 125.233 91.9214 126.576 94.3911C130.552 101.818 132.61 110.069 132.571 118.435V205.568H135.493V118.445C135.53 110.075 133.471 101.821 129.49 94.3911V94.3911Z" fill="black"/>
</g>
<g opacity="0.1">
<path opacity="0.1" d="M187.044 94.6312C188.384 92.1615 189.923 89.8395 191.625 88.0843C191.943 87.7521 192.328 87.4857 192.756 87.3011C192.124 87.033 191.421 86.9643 190.746 87.1049C190.072 87.2455 189.46 87.5881 188.998 88.0843C187.296 89.8395 185.761 92.1615 184.417 94.6312C180.441 102.058 178.384 110.309 178.422 118.675V205.808H181.053V118.689C181.011 110.318 183.067 102.063 187.044 94.6312V94.6312Z" fill="black"/>
</g>
<path d="M126.722 212.88H118.543V234.39H126.722V212.88Z" fill="url(#paint1_linear)"/>
<path d="M153.304 212.88H145.125V234.39H153.304V212.88Z" fill="url(#paint2_linear)"/>
<path d="M169.956 212.88H161.777V234.39H169.956V212.88Z" fill="url(#paint3_linear)"/>
<path d="M196.833 212.88H188.654V234.39H196.833V212.88Z" fill="url(#paint4_linear)"/>
<path d="M160.348 19.6378C159.921 19.1458 159.388 18.7502 158.786 18.4789C158.185 18.2075 157.529 18.0669 156.865 18.0669C156.201 18.0669 155.546 18.2075 154.944 18.4789C154.342 18.7502 153.809 19.1458 153.382 19.6378C150.953 22.2689 148.773 25.7485 146.845 29.4513C141.172 40.4222 138.286 52.8737 138.286 65.5003V205.33H175.189V64.9369C175.189 52.6676 172.434 40.5493 167.035 29.8291C164.479 24.7421 162.146 21.582 160.348 19.6378Z" fill="#EEEEEE"/>
<path d="M162.21 35.1704H150.755C148.601 35.1704 146.855 36.862 146.855 38.9488V39.9414C146.855 42.0282 148.601 43.7198 150.755 43.7198H162.21C164.363 43.7198 166.109 42.0282 166.109 39.9414V38.9488C166.109 36.862 164.363 35.1704 162.21 35.1704Z" fill="#6C63FF"/>
<g opacity="0.7">
<path opacity="0.7" d="M242.705 232.04C241.494 224.966 237.576 218.594 231.732 214.194C225.888 209.794 218.548 207.689 211.174 208.299C203.799 208.908 196.933 212.188 191.943 217.484C186.954 222.779 184.207 229.702 184.251 236.873C184.251 237.014 184.251 237.151 184.251 237.292C183.162 237.452 182.085 237.675 181.024 237.962C179.666 232.722 176.66 228.02 172.422 224.509C168.184 220.997 162.925 218.849 157.371 218.362C151.817 217.875 146.245 219.073 141.425 221.79C136.605 224.507 132.776 228.609 130.469 233.527C128.091 232.638 125.593 232.085 123.052 231.885V231.885C122.647 229.657 121.968 227.483 121.028 225.411C120.587 218.873 117.618 212.736 112.714 208.226C107.809 203.715 101.33 201.161 94.5677 201.075C87.8059 200.988 81.2589 203.374 76.2329 207.758C71.207 212.141 68.0715 218.199 67.4521 224.724C66.06 227.58 65.1709 230.641 64.8215 233.782C58.6674 236.262 53.683 240.868 50.8344 246.707C47.9858 252.545 47.4757 259.2 49.4032 265.382H264.806C265.929 261.777 266.231 257.978 265.693 254.248C265.155 250.518 263.788 246.945 261.687 243.776C259.587 240.607 256.802 237.916 253.525 235.89C250.248 233.864 246.556 232.551 242.705 232.04V232.04Z" fill="url(#paint5_linear)"/>
</g>
<path d="M96.6827 252.374C110.943 252.374 122.503 241.174 122.503 227.358C122.503 213.542 110.943 202.342 96.6827 202.342C82.4226 202.342 70.8626 213.542 70.8626 227.358C70.8626 241.174 82.4226 252.374 96.6827 252.374Z" fill="url(#paint6_linear)"/>
<path d="M96.5551 264.132C112.17 264.132 124.828 251.868 124.828 236.739C124.828 221.61 112.17 209.346 96.5551 209.346C80.9401 209.346 68.2816 221.61 68.2816 236.739C68.2816 251.868 80.9401 264.132 96.5551 264.132Z" fill="url(#paint7_linear)"/>
<path d="M211.457 264.132C227.072 264.132 239.73 251.868 239.73 236.739C239.73 221.61 227.072 209.346 211.457 209.346C195.842 209.346 183.183 221.61 183.183 236.739C183.183 251.868 195.842 264.132 211.457 264.132Z" fill="url(#paint8_linear)"/>
<path d="M210.035 264.132C224.295 264.132 235.855 252.932 235.855 239.116C235.855 225.3 224.295 214.1 210.035 214.1C195.775 214.1 184.215 225.3 184.215 239.116C184.215 252.932 195.775 264.132 210.035 264.132Z" fill="url(#paint9_linear)"/>
<path d="M180.858 243.87C180.862 247.826 179.896 251.726 178.039 255.249C176.183 258.773 173.489 261.818 170.179 264.135H139.892C136.307 261.625 133.448 258.265 131.588 254.377C129.728 250.489 128.929 246.203 129.269 241.931C129.609 237.658 131.075 233.541 133.528 229.975C135.98 226.409 139.337 223.512 143.276 221.564C147.215 219.615 151.605 218.678 156.025 218.845C160.445 219.011 164.746 220.274 168.518 222.512C172.289 224.751 175.404 227.891 177.564 231.63C179.724 235.37 180.857 239.584 180.854 243.87H180.858Z" fill="url(#paint10_linear)"/>
<path d="M212.878 261.882C212.878 262.631 212.844 263.372 212.776 264.105C212.778 264.115 212.778 264.125 212.776 264.136H161.341C161.27 263.394 161.235 262.641 161.235 261.886C161.23 255.9 163.444 250.111 167.472 245.572C171.501 241.033 177.077 238.047 183.187 237.155C184.464 236.969 185.753 236.875 187.044 236.873C187.704 236.873 188.359 236.897 189.008 236.942C193.636 237.285 198.083 238.829 201.882 241.412C205.682 243.995 208.693 247.522 210.599 251.622C210.705 251.849 210.808 252.079 210.904 252.309C212.208 255.343 212.879 258.596 212.878 261.882V261.882Z" fill="url(#paint11_linear)"/>
<path d="M261.679 256.878C261.682 259.335 261.309 261.78 260.573 264.132H211.152C209.957 260.285 209.73 256.217 210.489 252.268C210.532 252.052 210.574 251.832 210.624 251.619C211.868 246.026 215.052 241.015 219.647 237.42C224.241 233.826 229.968 231.865 235.873 231.865C236.685 231.865 237.483 231.899 238.273 231.975C238.628 232.002 238.982 232.043 239.337 232.088C245.525 232.904 251.199 235.865 255.307 240.423C259.415 244.981 261.679 250.826 261.679 256.878V256.878Z" fill="url(#paint12_linear)"/>
<path d="M103.068 264.135C103.153 263.874 103.227 263.613 103.302 263.349C104.477 259.089 104.471 254.605 103.283 250.349C102.095 246.093 99.7685 242.216 96.5381 239.111C93.3076 236.006 89.2881 233.783 84.886 232.666C80.4839 231.549 75.8554 231.578 71.4688 232.751C70.4417 233.024 69.4339 233.361 68.4518 233.761C62.5385 236.144 57.7493 240.57 55.0126 246.18C52.2759 251.79 51.7866 258.185 53.6397 264.125H103.068V264.135Z" fill="url(#paint13_linear)"/>
<g opacity="0.7">
<path opacity="0.7" d="M251.866 212.684C254.482 212.684 256.602 210.63 256.602 208.095C256.602 205.561 254.482 203.506 251.866 203.506C249.25 203.506 247.129 205.561 247.129 208.095C247.129 210.63 249.25 212.684 251.866 212.684Z" fill="url(#paint14_linear)"/>
</g>
<path d="M251.866 212.348C254.29 212.348 256.255 210.444 256.255 208.096C256.255 205.747 254.29 203.843 251.866 203.843C249.442 203.843 247.477 205.747 247.477 208.096C247.477 210.444 249.442 212.348 251.866 212.348Z" fill="url(#paint15_linear)"/>
<g opacity="0.7">
<path opacity="0.7" d="M273.555 257.379C276.408 257.379 278.721 255.138 278.721 252.374C278.721 249.61 276.408 247.37 273.555 247.37C270.703 247.37 268.39 249.61 268.39 252.374C268.39 255.138 270.703 257.379 273.555 257.379Z" fill="url(#paint16_linear)"/>
</g>
<path d="M273.555 257.128C276.265 257.128 278.462 255 278.462 252.374C278.462 249.749 276.265 247.621 273.555 247.621C270.846 247.621 268.649 249.749 268.649 252.374C268.649 255 270.846 257.128 273.555 257.128Z" fill="url(#paint17_linear)"/>
<g opacity="0.7">
<path opacity="0.7" d="M52.5301 229.354C55.6648 229.354 58.206 226.892 58.206 223.855C58.206 220.818 55.6648 218.355 52.5301 218.355C49.3953 218.355 46.8541 220.818 46.8541 223.855C46.8541 226.892 49.3953 229.354 52.5301 229.354Z" fill="url(#paint18_linear)"/>
</g>
<path d="M52.5301 229.106C55.5238 229.106 57.9508 226.755 57.9508 223.854C57.9508 220.954 55.5238 218.603 52.5301 218.603C49.5363 218.603 47.1094 220.954 47.1094 223.854C47.1094 226.755 49.5363 229.106 52.5301 229.106Z" fill="url(#paint19_linear)"/>
<g opacity="0.4">
<path opacity="0.4" d="M266.362 6.88047C265.104 5.26973 263.528 3.91761 261.725 2.90289C259.657 1.75143 257.343 1.07571 254.963 0.927873C252.583 0.780038 250.199 1.16404 247.996 2.05024C245.793 2.93645 243.83 4.30116 242.257 6.03908C240.685 7.777 239.546 9.84165 238.928 12.0737C238.31 14.3058 238.229 16.6456 238.693 18.9127C239.156 21.1797 240.15 23.3133 241.6 25.1488C243.049 26.9844 244.914 28.4728 247.051 29.4992C249.188 30.5257 251.54 31.0627 253.925 31.0688C254.255 31.0688 254.585 31.0688 254.911 31.0379C257.717 30.8664 260.423 29.9616 262.742 28.4197C265.06 26.8778 266.904 24.7563 268.077 22.2805C269.251 19.8048 269.711 17.0673 269.407 14.3588C269.104 11.6503 268.049 9.07197 266.355 6.89764L266.362 6.88047Z" fill="url(#paint20_linear)"/>
</g>
<path opacity="0.2" d="M268.649 15.9657C268.649 19.591 267.224 23.0803 264.664 25.7238C262.103 28.3674 258.599 29.9666 254.865 30.1963C254.557 30.2169 254.245 30.2272 253.933 30.2272C251.676 30.226 249.45 29.7219 247.426 28.754C245.403 27.7861 243.636 26.3804 242.263 24.6454C240.89 22.9105 239.947 20.8928 239.507 18.7484C239.067 16.604 239.142 14.3903 239.726 12.2785C240.31 10.1667 241.388 8.21326 242.876 6.56931C244.363 4.92536 246.221 3.6349 248.306 2.7977C250.391 1.9605 252.646 1.59898 254.898 1.74109C257.15 1.88321 259.338 2.52515 261.293 3.61729V3.61729C262.997 4.57662 264.488 5.8552 265.678 7.37848V7.37848C267.61 9.84948 268.654 12.8656 268.649 15.9657V15.9657Z" fill="#6C63FF"/>
<path opacity="0.05" d="M250.309 6.92193C249.549 7.23968 248.815 7.61406 248.115 8.04169C247.647 8.29307 247.245 8.64572 246.941 9.07216C246.793 9.28603 246.711 9.53686 246.706 9.79458C246.701 10.0523 246.773 10.3059 246.913 10.5251C247.267 10.9991 247.976 11.0747 248.569 11.1056C249.113 11.2176 249.678 11.1875 250.206 11.0185C250.734 10.8496 251.207 10.5477 251.575 10.1438L252.841 9.03094C253.28 8.64623 253.762 8.11383 253.571 7.57112C253.426 7.1555 252.943 6.95284 252.507 6.88414C251.42 6.67672 250.291 6.86895 249.341 7.42342" fill="#F55F44"/>
<path opacity="0.05" d="M245.023 22.3443C245.45 22.3443 245.796 22.009 245.796 21.5955C245.796 21.1819 245.45 20.8467 245.023 20.8467C244.596 20.8467 244.25 21.1819 244.25 21.5955C244.25 22.009 244.596 22.3443 245.023 22.3443Z" fill="#F55F44"/>
<path opacity="0.05" d="M260.775 19.593C262.343 19.593 263.615 18.3612 263.615 16.8417C263.615 15.3221 262.343 14.0903 260.775 14.0903C259.207 14.0903 257.935 15.3221 257.935 16.8417C257.935 18.3612 259.207 19.593 260.775 19.593Z" fill="#F55F44"/>
<path opacity="0.05" d="M265.682 7.37504C265.67 8.09394 265.446 8.7946 265.036 9.39373C264.626 9.99285 264.047 10.4652 263.367 10.7547C262.688 11.0442 261.937 11.1387 261.204 11.0268C260.471 10.9149 259.787 10.6015 259.232 10.1237C258.677 9.64595 258.276 9.02394 258.076 8.33164C257.876 7.63935 257.885 6.90588 258.102 6.21843C258.319 5.53099 258.736 4.91847 259.302 4.45371C259.868 3.98895 260.56 3.69149 261.296 3.59668V3.59668C263.003 4.56105 264.494 5.84556 265.682 7.37504V7.37504Z" fill="#F55F44"/>
<path opacity="0.05" d="M265.965 24.1784C264.699 25.9238 263.044 27.3709 261.123 28.4126C259.201 29.4543 257.062 30.0639 254.865 30.1963C254.847 30.0005 254.837 29.8013 254.837 29.6021C254.837 28.3505 255.196 27.1237 255.874 26.0584C256.552 24.9931 257.522 24.1312 258.676 23.5688C259.83 23.0064 261.123 22.7655 262.41 22.8732C263.697 22.9808 264.928 23.4327 265.965 24.1784V24.1784Z" fill="#F55F44"/>
<path opacity="0.25" d="M256.255 121.039C257.253 121.039 258.063 120.254 258.063 119.287C258.063 118.319 257.253 117.535 256.255 117.535C255.256 117.535 254.447 118.319 254.447 119.287C254.447 120.254 255.256 121.039 256.255 121.039Z" fill="#535461"/>
<path opacity="0.25" d="M15.1772 167.066C16.1758 167.066 16.9853 166.282 16.9853 165.314C16.9853 164.347 16.1758 163.562 15.1772 163.562C14.1787 163.562 13.3692 164.347 13.3692 165.314C13.3692 166.282 14.1787 167.066 15.1772 167.066Z" fill="#535461"/>
<path opacity="0.25" d="M326.096 177.027C327.095 177.027 327.904 176.243 327.904 175.275C327.904 174.308 327.095 173.523 326.096 173.523C325.098 173.523 324.288 174.308 324.288 175.275C324.288 176.243 325.098 177.027 326.096 177.027Z" fill="#535461"/>
<path opacity="0.25" d="M102.362 94.0197C103.361 94.0197 104.17 93.2354 104.17 92.2679C104.17 91.3004 103.361 90.5161 102.362 90.5161C101.364 90.5161 100.554 91.3004 100.554 92.2679C100.554 93.2354 101.364 94.0197 102.362 94.0197Z" fill="#535461"/>
<path opacity="0.25" d="M96.4239 53.7423C97.4224 53.7423 98.2319 52.958 98.2319 51.9906C98.2319 51.0231 97.4224 50.2388 96.4239 50.2388C95.4253 50.2388 94.6158 51.0231 94.6158 51.9906C94.6158 52.958 95.4253 53.7423 96.4239 53.7423Z" fill="#535461"/>
<path opacity="0.25" d="M45.2977 133.545C46.2963 133.545 47.1058 132.761 47.1058 131.793C47.1058 130.826 46.2963 130.042 45.2977 130.042C44.2992 130.042 43.4897 130.826 43.4897 131.793C43.4897 132.761 44.2992 133.545 45.2977 133.545Z" fill="#535461"/>
<path opacity="0.25" d="M301.056 133.851H299.446V132.295H298.791V133.851H297.181V134.49H298.791V136.046H299.446V134.49H301.056V133.851Z" fill="#535461"/>
<path opacity="0.25" d="M328 79.9232H326.39V78.3672H325.735V79.9232H324.125V80.5621H325.735V82.1181H326.39V80.5621H328V79.9232Z" fill="#535461"/>
<path opacity="0.25" d="M213.265 49.7958H211.655V48.2363H210.999V49.7958H209.39V50.4312H210.999V51.9906H211.655V50.4312H213.265V49.7958Z" fill="#535461"/>
<path opacity="0.25" d="M283.496 125.095H281.887V123.539H281.231V125.095H279.625V125.734H281.231V127.29H281.887V125.734H283.496V125.095Z" fill="#535461"/>
<path opacity="0.25" d="M224.624 176.879H223.018V175.323H222.362V176.879H220.752V177.518H222.362V179.074H223.018V177.518H224.624V176.879Z" fill="#535461"/>
<path opacity="0.25" d="M59.89 70.0584H58.2805V68.5024H57.6246V70.0584H56.015V70.6939H57.6246V72.2533H58.2805V70.6939H59.89V70.0584Z" fill="#535461"/>
<path opacity="0.25" d="M3.87497 90.3241H2.26542V88.7681H1.60955V90.3241H0V90.9595H1.60955V92.5189H2.26542V90.9595H3.87497V90.3241Z" fill="#535461"/>
<path opacity="0.25" d="M82.094 154.117H80.4844V152.557H79.8285V154.117H78.2225V154.752H79.8285V156.311H80.4844V154.752H82.094V154.117Z" fill="#535461"/>
<path d="M273.555 257.128C276.265 257.128 278.462 255 278.462 252.374C278.462 249.749 276.265 247.621 273.555 247.621C270.846 247.621 268.649 249.749 268.649 252.374C268.649 255 270.846 257.128 273.555 257.128Z" fill="url(#paint21_linear)"/>
<g opacity="0.4">
<path opacity="0.4" d="M95.3532 120.523C94.7542 119.756 94.0033 119.111 93.1445 118.627C92.1596 118.072 91.0557 117.744 89.9186 117.669C88.7816 117.593 87.642 117.773 86.5882 118.194C85.5344 118.614 84.5949 119.265 83.8425 120.094C83.0902 120.923 82.5452 121.91 82.25 122.976C81.9547 124.043 81.9172 125.161 82.1402 126.244C82.3632 127.326 82.8407 128.345 83.5358 129.22C84.2309 130.095 85.1248 130.803 86.1481 131.289C87.1713 131.776 88.2965 132.027 89.4362 132.023C89.5922 132.023 89.7517 132.023 89.9042 132.023C91.2401 131.941 92.528 131.509 93.6313 130.774C94.7345 130.04 95.612 129.03 96.1707 127.851C96.7294 126.672 96.9483 125.369 96.8044 124.08C96.6605 122.79 96.159 121.563 95.3532 120.527V120.523Z" fill="url(#paint22_linear)"/>
</g>
<path opacity="0.2" d="M96.4416 124.851C96.4416 126.578 95.7626 128.24 94.5429 129.499C93.3232 130.758 91.6544 131.519 89.8758 131.628C89.7304 131.628 89.5815 131.628 89.4326 131.628C88.3581 131.627 87.2982 131.387 86.3349 130.926C85.3715 130.465 84.5305 129.795 83.8768 128.969C83.2232 128.142 82.7743 127.182 82.565 126.16C82.3557 125.139 82.3915 124.085 82.6697 123.08C82.9479 122.074 83.461 121.144 84.1693 120.361C84.8777 119.578 85.7623 118.964 86.7549 118.565C87.7475 118.166 88.8214 117.994 89.8937 118.061C90.9659 118.129 92.0078 118.434 92.9389 118.954V118.954C93.7503 119.41 94.4601 120.019 95.027 120.743V120.743C95.951 121.925 96.4481 123.369 96.4416 124.851V124.851Z" fill="#6C63FF"/>
<path opacity="0.1" d="M87.7061 120.544C87.3377 120.694 86.9821 120.872 86.6425 121.076C86.42 121.194 86.2283 121.36 86.0824 121.561C86.0148 121.663 85.979 121.782 85.979 121.904C85.979 122.026 86.0148 122.145 86.0824 122.248C86.1854 122.346 86.3091 122.421 86.4449 122.468C86.5808 122.516 86.7255 122.534 86.8694 122.522C87.1264 122.573 87.3927 122.558 87.6415 122.478C87.8904 122.398 88.1132 122.255 88.2875 122.066L88.8902 121.537C89.0994 121.351 89.3298 121.1 89.2447 120.85C89.1972 120.755 89.1253 120.673 89.0358 120.613C88.9464 120.553 88.8426 120.516 88.7342 120.506C88.2164 120.408 87.6794 120.5 87.2275 120.764" fill="#F55F44"/>
<path opacity="0.1" d="M85.1889 127.888C85.3926 127.888 85.5576 127.728 85.5576 127.531C85.5576 127.333 85.3926 127.173 85.1889 127.173C84.9853 127.173 84.8203 127.333 84.8203 127.531C84.8203 127.728 84.9853 127.888 85.1889 127.888Z" fill="#F55F44"/>
<path opacity="0.1" d="M92.6907 126.579C93.4387 126.579 94.045 125.991 94.045 125.267C94.045 124.542 93.4387 123.955 92.6907 123.955C91.9428 123.955 91.3365 124.542 91.3365 125.267C91.3365 125.991 91.9428 126.579 92.6907 126.579Z" fill="#F55F44"/>
<path opacity="0.1" d="M95.027 120.774C95.0226 121.116 94.9167 121.45 94.7221 121.735C94.5276 122.021 94.2524 122.246 93.9294 122.385C93.6064 122.523 93.2492 122.569 92.9002 122.516C92.5513 122.464 92.2252 122.315 91.9609 122.088C91.6966 121.861 91.5051 121.565 91.4093 121.236C91.3135 120.907 91.3173 120.558 91.4203 120.23C91.5233 119.903 91.7212 119.611 91.9904 119.39C92.2596 119.168 92.5888 119.026 92.9389 118.981V118.981C93.7506 119.439 94.4604 120.048 95.027 120.774V120.774Z" fill="#F55F44"/>
<path opacity="0.1" d="M95.1653 128.763C94.5627 129.595 93.7746 130.285 92.8596 130.781C91.9446 131.278 90.926 131.568 89.8793 131.632C89.8793 131.539 89.8793 131.443 89.8793 131.346C89.8773 130.748 90.0479 130.16 90.3717 129.65C90.6955 129.14 91.1599 128.727 91.7124 128.459C92.265 128.191 92.8839 128.077 93.4995 128.131C94.1152 128.184 94.7031 128.404 95.1972 128.763H95.1653Z" fill="#F55F44"/>
<g opacity="0.1">
<path opacity="0.1" d="M174.99 70.2812H138.474V71.6552H174.99V70.2812Z" fill="black"/>
</g>
</g>
<defs>
<linearGradient id="paint0_linear" x1="157.104" y1="239.277" x2="157.104" y2="17.3842" gradientUnits="userSpaceOnUse">
<stop stop-color="#808080" stop-opacity="0.25"/>
<stop offset="0.54" stop-color="#808080" stop-opacity="0.12"/>
<stop offset="1" stop-color="#808080" stop-opacity="0.1"/>
</linearGradient>
<linearGradient id="paint1_linear" x1="122.63" y1="212.88" x2="122.63" y2="234.393" gradientUnits="userSpaceOnUse">
<stop stop-color="#E0E0E0"/>
<stop offset="0.31" stop-color="#FCCC63"/>
<stop offset="0.77" stop-color="#F55F44"/>
</linearGradient>
<linearGradient id="paint2_linear" x1="3587.55" y1="13488.3" x2="3587.55" y2="14835.5" gradientUnits="userSpaceOnUse">
<stop stop-color="#E0E0E0"/>
<stop offset="0.31" stop-color="#FCCC63"/>
<stop offset="0.77" stop-color="#F55F44"/>
</linearGradient>
<linearGradient id="paint3_linear" x1="3988.38" y1="13488.3" x2="3988.38" y2="14835.5" gradientUnits="userSpaceOnUse">
<stop stop-color="#E0E0E0"/>
<stop offset="0.31" stop-color="#FCCC63"/>
<stop offset="0.77" stop-color="#F55F44"/>
</linearGradient>
<linearGradient id="paint4_linear" x1="4635.25" y1="13488.3" x2="4635.25" y2="14835.5" gradientUnits="userSpaceOnUse">
<stop stop-color="#E0E0E0"/>
<stop offset="0.31" stop-color="#FCCC63"/>
<stop offset="0.77" stop-color="#F55F44"/>
</linearGradient>
<linearGradient id="paint5_linear" x1="126433" y1="53903.2" x2="126433" y2="41860.5" gradientUnits="userSpaceOnUse">
<stop stop-color="#808080" stop-opacity="0.25"/>
<stop offset="0.54" stop-color="#808080" stop-opacity="0.12"/>
<stop offset="1" stop-color="#808080" stop-opacity="0.1"/>
</linearGradient>
<linearGradient id="paint6_linear" x1="96.6827" y1="202.342" x2="96.6827" y2="252.374" gradientUnits="userSpaceOnUse">
<stop stop-color="#F2F2F2"/>
<stop offset="0.31" stop-color="#E6E6E6"/>
<stop offset="0.77" stop-color="#CCCCCC"/>
</linearGradient>
<linearGradient id="paint7_linear" x1="15468.8" y1="33459.7" x2="15468.8" y2="42198.1" gradientUnits="userSpaceOnUse">
<stop stop-color="#F2F2F2"/>
<stop offset="0.31" stop-color="#E6E6E6"/>
<stop offset="0.77" stop-color="#CCCCCC"/>
</linearGradient>
<linearGradient id="paint8_linear" x1="33910.5" y1="33459.7" x2="33910.5" y2="42198.1" gradientUnits="userSpaceOnUse">
<stop stop-color="#F2F2F2"/>
<stop offset="0.31" stop-color="#E6E6E6"/>
<stop offset="0.77" stop-color="#CCCCCC"/>
</linearGradient>
<linearGradient id="paint9_linear" x1="30777.9" y1="31271.7" x2="30777.9" y2="38559.4" gradientUnits="userSpaceOnUse">
<stop stop-color="#F2F2F2"/>
<stop offset="0.31" stop-color="#E6E6E6"/>
<stop offset="0.77" stop-color="#CCCCCC"/>
</linearGradient>
<linearGradient id="paint10_linear" x1="29822.1" y1="31914.7" x2="29822.1" y2="37887.9" gradientUnits="userSpaceOnUse">
<stop stop-color="#F2F2F2"/>
<stop offset="0.31" stop-color="#E6E6E6"/>
<stop offset="0.77" stop-color="#CCCCCC"/>
</linearGradient>
<linearGradient id="paint11_linear" x1="34505.9" y1="20737.8" x2="34505.9" y2="22902.2" gradientUnits="userSpaceOnUse">
<stop stop-color="#F2F2F2"/>
<stop offset="0.31" stop-color="#E6E6E6"/>
<stop offset="0.77" stop-color="#CCCCCC"/>
</linearGradient>
<linearGradient id="paint12_linear" x1="41652.4" y1="24026" x2="41652.4" y2="27057.9" gradientUnits="userSpaceOnUse">
<stop stop-color="#F2F2F2"/>
<stop offset="0.31" stop-color="#E6E6E6"/>
<stop offset="0.77" stop-color="#CCCCCC"/>
</linearGradient>
<linearGradient id="paint13_linear" x1="18562.3" y1="24039.9" x2="18562.3" y2="27073.5" gradientUnits="userSpaceOnUse">
<stop stop-color="#F2F2F2"/>
<stop offset="0.31" stop-color="#E6E6E6"/>
<stop offset="0.77" stop-color="#CCCCCC"/>
</linearGradient>
<linearGradient id="paint14_linear" x1="6976.96" y1="5862.92" x2="6976.96" y2="5617.69" gradientUnits="userSpaceOnUse">
<stop stop-color="#808080" stop-opacity="0.25"/>
<stop offset="0.54" stop-color="#808080" stop-opacity="0.12"/>
<stop offset="1" stop-color="#808080" stop-opacity="0.1"/>
</linearGradient>
<linearGradient id="paint15_linear" x1="6483.66" y1="5229.23" x2="6483.66" y2="5439.81" gradientUnits="userSpaceOnUse">
<stop stop-color="#F2F2F2"/>
<stop offset="0.31" stop-color="#E6E6E6"/>
<stop offset="0.77" stop-color="#CCCCCC"/>
</linearGradient>
<linearGradient id="paint16_linear" x1="8239.82" y1="7721.73" x2="8239.82" y2="7430.16" gradientUnits="userSpaceOnUse">
<stop stop-color="#808080" stop-opacity="0.25"/>
<stop offset="0.54" stop-color="#808080" stop-opacity="0.12"/>
<stop offset="1" stop-color="#808080" stop-opacity="0.1"/>
</linearGradient>
<linearGradient id="paint17_linear" x1="273.555" y1="247.621" x2="273.555" y2="257.128" gradientUnits="userSpaceOnUse">
<stop stop-color="#F2F2F2"/>
<stop offset="0.31" stop-color="#E0E0E0"/>
<stop offset="0.77" stop-color="#B3B3B3"/>
</linearGradient>
<linearGradient id="paint18_linear" x1="1728.87" y1="7534.07" x2="1728.87" y2="7181.9" gradientUnits="userSpaceOnUse">
<stop stop-color="#808080" stop-opacity="0.25"/>
<stop offset="0.54" stop-color="#808080" stop-opacity="0.12"/>
<stop offset="1" stop-color="#808080" stop-opacity="0.1"/>
</linearGradient>
<linearGradient id="paint19_linear" x1="1653.48" y1="6876.6" x2="1653.48" y2="7197.91" gradientUnits="userSpaceOnUse">
<stop stop-color="#F2F2F2"/>
<stop offset="0.31" stop-color="#E6E6E6"/>
<stop offset="0.77" stop-color="#CCCCCC"/>
</linearGradient>
<linearGradient id="paint20_linear" x1="26789.3" y1="4610.86" x2="26789.3" y2="1960.56" gradientUnits="userSpaceOnUse">
<stop stop-color="#808080" stop-opacity="0.25"/>
<stop offset="0.54" stop-color="#808080" stop-opacity="0.12"/>
<stop offset="1" stop-color="#808080" stop-opacity="0.1"/>
</linearGradient>
<linearGradient id="paint21_linear" x1="7840.61" y1="7077.4" x2="7840.61" y2="7340.57" gradientUnits="userSpaceOnUse">
<stop stop-color="#F2F2F2"/>
<stop offset="0.31" stop-color="#E6E6E6"/>
<stop offset="0.77" stop-color="#CCCCCC"/>
</linearGradient>
<linearGradient id="paint22_linear" x1="5868.83" y1="6538.7" x2="5868.83" y2="5937.39" gradientUnits="userSpaceOnUse">
<stop stop-color="#808080" stop-opacity="0.25"/>
<stop offset="0.54" stop-color="#808080" stop-opacity="0.12"/>
<stop offset="1" stop-color="#808080" stop-opacity="0.1"/>
</linearGradient>
<clipPath id="clip0">
<rect width="328" height="264.516" fill="white" transform="translate(0 0.879883)"/>
</clipPath>
</defs>
</svg>
