<svg width="248" height="166" viewBox="0 0 248 166" fill="none" xmlns="http://www.w3.org/2000/svg">
<g clip-path="url(#clip0)">
<path d="M228.053 40.2649C200.019 5.18171 140.798 -9.04956 82.5565 6.27786C51.766 14.381 22.0783 30.6169 7.36574 62.0547C-18.9345 118.253 36.2862 136.202 72.3944 141.922C89.8545 144.688 106.299 149.335 121.326 155.661C148.361 167.042 196.215 177.127 232.299 129.719C258.454 95.3576 246.726 63.6338 228.053 40.2649Z" fill="#F2F2F2"/>
<path d="M65.5207 47.2061C65.4423 46.6485 65.2837 46.1024 65.0489 45.5816C65.019 45.4831 64.9665 45.3913 64.895 45.312C64.8234 45.2328 64.7343 45.1678 64.6332 45.1212C64.4982 45.0896 64.3566 45.0882 64.2208 45.117L62.1032 45.4084C61.926 45.4157 61.7563 45.475 61.62 45.5772C61.3442 45.8381 61.6158 46.2581 61.6074 46.618C61.5979 47.0227 61.1981 47.3512 60.7645 47.4598C60.322 47.5402 59.8655 47.5352 59.4253 47.4449L56.4643 47.0311C57.3363 46.7807 58.1125 46.3149 58.7043 45.6867C59.094 45.2716 59.3013 44.4966 58.7381 44.3C58.5708 44.2587 58.3963 44.2461 58.2238 44.2628C56.8823 44.2722 55.8266 43.2649 54.5707 42.8406C53.7669 42.5866 52.8944 42.5677 52.0779 42.7866C51.2614 43.0055 50.5428 43.451 50.0248 44.0594L51.6022 44.1277C51.7506 44.1204 51.8977 44.1557 52.0223 44.2285C52.368 44.4839 51.9383 44.9746 51.987 45.3745C52.0502 45.8942 52.8174 46.0051 53.3958 46.0577C53.9741 46.1102 54.7078 46.5328 54.4296 46.9918C51.5228 47.8922 48.5649 45.2317 45.5122 45.5592C44.7395 45.6421 44.01 45.915 43.2556 46.0867C38.6476 47.1352 33.8837 44.3376 29.1764 44.9301C28.1299 45.0906 27.1013 45.3345 26.103 45.6591C25.4623 45.8483 24.794 46.0527 24.3285 46.4915C23.863 46.9302 23.6858 47.6806 24.1268 48.1393C22.9113 48.2293 21.6877 48.1247 20.5128 47.8304C20.8305 47.9892 21.0948 48.222 21.278 48.5044C21.4611 48.7868 21.5564 49.1083 21.5537 49.4352C19.6559 49.7135 17.8082 50.2201 16.0606 50.9415C16.3867 51.4293 16.7677 51.8857 17.1975 52.3036L14.7948 53.6918C15.6066 53.8757 16.0263 54.8711 15.5542 55.4928C16.3959 55.1561 16.9175 54.285 17.8176 54.1084C18.4072 53.9927 19.0072 54.2096 19.5665 54.4134C20.1259 54.6171 20.7407 54.8147 21.3198 54.6618C21.8988 54.5089 22.326 53.8336 21.958 53.4034C24.4331 52.7539 26.991 52.3945 29.5684 52.3341C29.7672 52.3116 29.9689 52.3461 30.1447 52.4325C30.4803 52.6418 30.392 53.0939 30.3739 53.4608C30.3558 53.8277 30.6738 54.3099 31.0384 54.1445C30.6094 54.479 30.9761 55.1088 31.3877 55.4606C31.7992 55.8123 32.2953 56.2977 32.0433 56.7553C31.9775 56.8748 31.866 56.9703 31.8027 57.0908C31.616 57.4465 31.9125 57.8612 32.2623 58.0975C32.612 58.3337 33.0405 58.4988 33.2834 58.8259C33.5264 59.153 33.416 59.7256 32.9816 59.7712L31.7467 58.3612C31.3248 58.7547 31.0356 59.2476 30.9126 59.7829C32.222 60.7456 32.419 62.705 31.3227 63.8633C30.7625 64.4552 29.9658 64.8149 29.2705 65.2766C28.5751 65.7383 27.9317 66.3957 27.9335 67.173C27.9365 68.5159 27.8145 69.7635 28.3741 71.0085C29.4059 73.3043 30.5971 75.5394 31.9408 77.7007C32.2936 78.2682 32.7497 78.8903 33.4645 78.988C32.5611 77.0102 31.7479 75.0016 31.0248 72.9623C31.4958 72.9639 32.04 72.9976 32.3161 73.3407C32.5447 73.6248 32.4956 74.0111 32.5666 74.356C32.657 74.6901 32.8076 75.0086 33.0126 75.2989L37.3265 82.2096C37.6841 82.7824 38.0943 83.3974 38.7777 83.6294C39.2147 83.7777 39.7203 83.7498 40.1225 83.9633C40.4377 84.1307 40.6501 84.4278 40.9715 84.5855C41.8802 85.0313 43.1439 84.1763 43.9931 84.7086C44.236 84.8608 44.3904 85.1026 44.6142 85.2769C45.3985 85.8877 46.6852 85.4791 47.5906 85.9347C48.1742 86.2284 48.4766 86.8158 48.7878 87.348C49.5675 88.6813 50.829 89.9875 52.4999 90.0937C53.0247 90.127 53.5608 90.0375 54.0739 90.1425C54.5869 90.2475 55.0919 90.6502 55.0096 91.1175C54.8684 91.9187 55.3086 92.7961 55.1904 93.6003C54.975 95.0652 52.6645 95.709 52.4661 97.1759C52.4226 97.497 52.4906 97.8285 52.4056 98.1429C52.3014 98.5282 51.9796 98.8419 51.8653 99.2249C51.6486 99.9506 52.2268 100.673 52.8619 101.161C53.4971 101.649 54.2547 102.07 54.602 102.754C54.969 103.476 54.7887 104.319 54.9081 105.106C55.1687 106.824 56.8187 108.097 58.5169 108.919C59.0343 109.169 59.5898 109.411 59.9247 109.845C60.3618 110.412 60.3182 111.159 60.4642 111.836C60.8216 113.494 62.3735 114.86 62.4176 116.548C62.4489 117.748 61.7072 118.836 61.2641 119.969C60.8487 121.054 60.6984 122.206 60.8234 123.348C60.9484 124.49 61.3458 125.594 61.9885 126.585C62.3199 127.088 62.7163 127.563 62.9508 128.109C63.3692 129.082 63.2335 130.189 63.6192 131.174C64.1293 132.475 65.5307 133.55 65.3966 134.925C66.0329 136.113 67.4379 136.697 68.8506 137.051L71.3827 137.685C71.8675 137.806 72.3741 137.929 72.8678 137.841C73.3615 137.753 73.8326 137.384 73.8199 136.932C72.5782 136.68 71.2967 136.412 70.2731 135.732C69.2496 135.051 68.5484 133.839 68.9368 132.749C69.1169 132.244 69.5 131.66 69.1357 131.242C68.9272 131.003 68.5458 130.941 68.3106 130.723C67.9437 130.382 68.0698 129.81 68.3335 129.4C68.5973 128.99 68.9786 128.623 69.0849 128.159C69.1387 127.899 69.1028 127.631 68.9821 127.39C68.8614 127.149 68.6618 126.947 68.4099 126.811C68.8794 126.652 69.3063 126.405 69.6631 126.088C69.9927 125.749 70.1449 125.228 69.8857 124.843C70.6556 124.931 71.5645 124.974 72.0699 124.444C72.4735 124.021 72.4458 123.389 72.2863 122.85C72.1269 122.312 71.8573 121.788 71.8489 121.231C73.625 121.307 75.4049 121.253 77.1712 121.069C76.9158 120.295 76.3354 119.642 75.553 119.246C76.353 119.125 77.0818 118.263 77.3345 117.57C77.5872 116.877 77.5228 116.121 77.3665 115.405C77.3066 115.221 77.2983 115.026 77.3426 114.838C77.4327 114.58 77.7147 114.423 77.9756 114.288L81.9462 112.237C82.1832 112.13 82.3979 111.988 82.5812 111.816C82.9972 111.376 82.9355 110.713 82.7225 110.168C82.5095 109.624 82.1683 109.112 82.0863 108.54C81.8409 106.828 83.8786 105.599 84.5662 103.988C84.8361 103.356 84.8911 102.668 84.9433 101.992C84.9994 101.267 85.0036 100.424 84.384 99.956C83.79 99.5076 82.8619 99.6077 82.2403 99.1906C81.6705 98.8083 81.4739 98.0658 80.8514 97.7569C80.286 97.4765 79.5772 97.6549 78.9485 97.523C77.8414 97.2907 77.1447 96.1432 76.0141 96.037C75.3761 95.977 74.6542 96.2575 74.1313 95.9234C73.6706 95.629 73.6521 95.0372 73.5644 94.5351C73.4108 93.7548 72.9949 93.0355 72.3727 92.4742C71.7506 91.913 70.9522 91.5366 70.085 91.3959C69.4272 91.301 68.7113 91.3371 68.1518 91.012C67.5852 90.6828 67.3254 90.0666 66.8803 89.6107C66.163 88.8761 65.0333 88.615 63.975 88.3913L59.6704 87.4812C58.9062 87.3197 57.9213 87.234 57.5112 87.836C57.3898 88.0652 57.3039 88.3082 57.2558 88.5584C57.1021 89.0109 56.7929 89.408 56.3725 89.6926C55.9522 89.9771 55.4423 90.1345 54.9163 90.142C54.5555 89.5886 53.971 89.1819 53.2848 89.0068C52.8483 88.8974 52.3811 88.8852 51.9648 88.7243C51.7381 88.6247 51.5363 88.4847 51.3719 88.3126C51.2075 88.1405 51.0838 87.9401 51.0085 87.7235C50.9332 87.507 50.9078 87.2789 50.9339 87.0532C50.96 86.8275 51.037 86.609 51.1603 86.4111C51.4084 86.0137 51.5043 85.5539 51.433 85.1026C51.3617 84.6514 51.1273 84.2338 50.7659 83.9143C50.0338 83.3232 48.9749 83.1804 47.9933 83.2396C47.7362 82.7351 48.1661 82.1659 48.6293 81.7993C49.0925 81.4327 49.655 81.0722 49.7558 80.5248C49.9145 79.6636 48.6927 79.0095 47.765 79.2663C46.8373 79.5231 46.2453 80.3334 45.8539 81.1322C45.6293 81.5906 45.4384 82.0732 45.0841 82.4596C44.7299 82.8461 44.1594 83.1228 43.6199 82.9988C42.856 82.8232 42.561 82.007 42.3919 81.3145C42.1651 80.3853 41.937 79.4432 41.9845 78.4928C42.032 77.5425 42.3883 76.5667 43.1675 75.9233C44.4373 74.8749 46.3852 74.9777 48.0989 75.145C47.6941 74.7347 47.7941 74.0433 48.2273 73.6572C48.456 73.4745 48.7308 73.3446 49.0278 73.279C49.3249 73.2134 49.6353 73.2139 49.9321 73.2805C50.4485 73.3772 50.9137 73.6273 51.2528 73.9907C51.7398 74.5246 51.8782 75.2456 52.2463 75.8516C52.6144 76.4577 53.4421 76.9747 54.1196 76.6495C54.7047 76.3687 54.7976 75.639 54.6519 75.057C54.5063 74.4751 54.197 73.9092 54.2498 73.3146C54.3504 72.18 55.6582 71.4971 56.8122 71.0299C57.9662 70.5626 59.2876 69.9342 59.4705 68.808C59.4767 68.5874 59.523 68.3693 59.6074 68.1622C59.7354 67.9793 59.9132 67.8289 60.1241 67.7252C63.4921 65.7235 66.9162 63.6973 70.7657 62.6036C70.966 62.5466 70.9895 62.6099 71.1936 62.5653C71.4792 62.4168 71.29 62.0061 71.0161 61.8406C70.7422 61.6752 70.3762 61.5483 70.3067 61.2582C70.2556 61.045 70.3953 60.8356 70.4316 60.62C70.5207 60.09 69.8158 59.6008 69.2684 59.8126C68.9592 59.4443 69.571 59.0164 70.0658 58.8939C71.5514 58.5262 73.0764 58.3021 74.6149 58.2256C74.7925 58.2002 74.9744 58.228 75.1326 58.3048C75.391 58.4657 75.358 58.8349 75.1748 59.0647C74.9917 59.2945 74.7068 59.4388 74.4786 59.6332C74.2293 59.8516 74.0515 60.1274 73.9645 60.4306C73.8776 60.7337 73.8849 61.0525 73.9857 61.3521C74.7889 61.7195 75.6621 62.0978 76.5516 61.9683C77.4412 61.8389 78.2307 60.94 77.8126 60.2222C77.4232 59.5536 76.2536 59.4029 76.0525 58.6702C75.817 57.8124 77.1673 57.0494 76.8631 56.2092C76.7299 55.8412 76.3221 55.6246 76.0091 55.3589C75.6396 55.0331 75.3882 54.6145 75.288 54.1579C75.1878 53.7013 75.2434 53.2281 75.4477 52.8005C74.938 52.8811 74.4142 52.8507 73.9202 52.7117C73.4263 52.5727 72.9766 52.3292 72.6089 52.0016C71.9299 51.3853 71.3882 50.4132 70.4241 50.4407C69.5392 50.466 68.7771 51.3944 67.9498 51.1112C67.7463 51.0415 67.5317 50.8997 67.3344 50.9828C67.2698 51.0205 67.2156 51.071 67.1758 51.1303C67.136 51.1897 67.1118 51.2564 67.1049 51.3254C66.8947 52.2294 67.2563 53.2594 66.7085 54.0406C66.1123 54.8907 64.7333 55.0085 64.0106 55.7751C63.6182 56.1912 63.4662 56.7519 63.1056 57.1906C62.745 57.6293 61.9796 57.9082 61.5468 57.5259C61.7595 57.1327 61.8176 56.6862 61.7116 56.2594C61.6056 55.8326 61.3417 55.4508 60.9631 55.1764C60.5613 54.9406 60.1282 54.7512 59.6739 54.6124C59.1663 54.4192 58.6834 54.1772 58.2337 53.8905C58.0084 53.7683 57.8253 53.5922 57.705 53.3818C57.6098 53.1183 57.6226 52.8329 57.7411 52.5772C57.9606 52.0114 58.3477 51.5102 58.8608 51.1278C59.3738 50.7453 59.9932 50.4962 60.6522 50.4073C61.2284 50.3368 61.8991 50.3616 62.2804 49.9668C62.4822 49.7579 62.588 49.442 62.8809 49.3571C63.0683 49.3233 63.2627 49.3448 63.4353 49.4186L65.5861 50.0994C65.8261 50.1968 66.0902 50.2361 66.3523 50.2133C66.4822 50.1976 66.6007 50.1382 66.6841 50.0472C66.7674 49.9561 66.8093 49.8401 66.8015 49.7224C66.7327 49.4012 66.1831 49.247 66.2331 48.923C66.2612 48.818 66.3239 48.7232 66.4132 48.6509C67.1893 47.908 68.1386 47.3285 69.1929 46.9541C70.2472 46.5796 71.3806 46.4195 72.5118 46.4851C72.7832 46.886 72.3539 47.3608 71.9967 47.7031C71.6394 48.0454 71.3524 48.657 71.7844 48.9204C71.9614 49.0017 72.1584 49.0416 72.3571 49.0364C72.8866 49.1009 73.4012 49.2413 73.8813 49.4522C74.6245 49.7431 75.3534 50.0613 76.0681 50.407C76.005 49.9832 75.9447 49.5367 76.1233 49.1405C76.302 48.7442 76.8096 48.4334 77.253 48.5878C77.6803 48.7365 77.8994 49.2453 78.3547 49.2919C78.9619 49.3541 79.2015 48.5473 78.9479 48.0472C78.6942 47.5471 78.192 47.1284 78.1501 46.58C78.1218 46.21 78.2784 45.7512 77.9498 45.5272C77.8329 45.4599 77.7001 45.4181 77.5621 45.4049L69.3574 44.0471C68.8702 43.9665 68.1662 44.0283 68.1446 44.4734C68.1326 44.7218 68.3793 44.9676 68.27 45.1961C68.1534 45.4399 67.7702 45.4176 67.4911 45.5038C67.058 45.6376 66.8406 46.1001 66.8822 46.5102C66.9584 46.9177 67.1339 47.3051 67.3961 47.6444C66.8625 47.4437 66.0544 47.4068 65.5207 47.2061Z" fill="#3F3D56"/>
<path d="M58.9742 40.9423C58.4568 40.7883 57.8993 40.7811 57.3772 40.9217C56.8551 41.0623 56.3938 41.3439 56.0557 41.7283C55.9206 41.8883 55.8071 42.1088 55.9202 42.282C56.0824 42.5304 56.4955 42.4323 56.8001 42.3434C57.2479 42.1996 57.7352 42.1891 58.19 42.3136C58.476 42.4019 58.7319 42.558 59.0192 42.643C59.159 42.6956 59.3122 42.713 59.4622 42.6933C59.6121 42.6736 59.7533 42.6175 59.8706 42.5311C60.0678 42.3503 60.0801 42.0691 60.0805 41.8159C60.0942 41.7311 60.0866 41.6447 60.0584 41.5629C60.0302 41.4811 59.9821 41.406 59.9175 41.3431C59.8025 41.2832 59.6733 41.2488 59.5406 41.2428C59.2433 41.1934 58.9746 41.0522 58.7807 40.8436" fill="#3F3D56"/>
<path d="M61.9326 40.2016C61.8168 40.1959 61.7014 40.2171 61.5974 40.2632C61.4933 40.3092 61.4042 40.3786 61.3386 40.4646C61.273 40.5506 61.2331 40.6503 61.2227 40.7541C61.2123 40.858 61.2319 40.9625 61.2794 41.0576C61.635 41.1448 62.0065 41.1666 62.3716 41.1217C62.5538 41.0963 62.7234 41.0229 62.8593 40.9109C62.9952 40.7989 63.0911 40.6532 63.135 40.4922C62.7051 40.5626 62.2615 40.4864 61.8906 40.2785" fill="#3F3D56"/>
<path d="M71.8586 38.9642C70.8908 39.1492 69.9506 39.4364 69.0577 39.8198C69.4787 39.9654 69.8365 40.2286 70.0785 40.5708C70.3204 40.9131 70.4338 41.3161 70.4018 41.7207C70.364 41.876 70.3684 42.0372 70.4145 42.1907C70.5174 42.4149 70.8155 42.4991 71.0775 42.5566C71.5483 42.6855 72.04 42.7419 72.5317 42.7236C72.7776 42.712 73.0165 42.6454 73.2267 42.5299C73.4369 42.4144 73.6117 42.2536 73.7353 42.0621C73.8066 41.8803 73.8902 41.7025 73.9857 41.5299C74.6138 40.6696 76.4798 41.7099 77.1542 40.8784C77.3918 40.5854 77.3701 40.1445 77.6798 39.9124C77.84 39.8113 78.0256 39.7476 78.22 39.727C79.5762 39.4847 80.9462 39.3092 82.3237 39.2014C82.9764 39.1503 83.8272 38.9395 83.8326 38.3503C81.3741 37.9161 78.825 38.2245 76.5815 39.2276C75.7732 39.5917 74.7042 40.3576 73.9256 39.8749C73.634 39.6941 73.6485 39.2075 73.2472 39.0042C72.837 38.7965 72.294 38.881 71.8586 38.9642Z" fill="#3F3D56"/>
<path d="M79.8985 40.3165L81.0526 40.516C80.8402 40.5075 80.6282 40.5399 80.4308 40.6109C80.2333 40.682 80.055 40.7901 79.9078 40.928C79.7605 41.066 79.6476 41.2306 79.5767 41.4108C79.5057 41.5911 79.4783 41.7829 79.4963 41.9734C80.5771 42.2981 81.7553 41.9822 82.8937 42.0253C84.0321 42.0685 85.3567 42.7998 85.1623 43.8095C85.1036 44.1148 84.9075 44.4199 85.0095 44.7159C85.0809 44.9233 85.2844 45.0705 85.3992 45.2615C85.6384 45.6597 85.4472 46.1632 85.1451 46.5251C84.843 46.887 84.4369 47.1757 84.1717 47.5603C83.5121 48.5168 83.8869 49.7534 84.2798 50.822C84.3934 51.2258 84.6032 51.6026 84.8946 51.9263C85.4767 52.4829 86.4253 52.5313 87.2748 52.5424C87.8932 52.5505 88.6015 52.5231 88.9925 52.0922C89.503 51.5297 89.146 50.6521 89.4821 49.992C89.7874 49.3924 90.5651 49.1352 91.2697 48.9528C92.5605 48.6186 93.8761 48.3344 95.0964 47.8296C96.6118 47.2028 98.028 46.2259 99.6936 46.1452C100.161 46.1226 100.64 46.1722 101.09 46.057C101.54 45.9419 101.968 45.5919 101.933 45.1722C101.904 44.8136 101.567 44.5502 101.303 44.2799C101.04 44.0095 100.833 43.5938 101.075 43.3078L105.441 42.5744C105.131 41.816 104.89 40.817 105.601 40.3234C105.858 40.1452 106.201 40.074 106.42 39.8587C106.792 39.4917 106.605 38.8594 106.175 38.5473C105.745 38.2351 105.164 38.1627 104.614 38.1215C102.699 37.9786 100.774 38.073 98.8562 38.1676C95.1069 38.3524 91.3577 38.5372 87.6084 38.7221C86.8537 38.7593 85.9823 38.7024 85.29 38.934C84.704 39.13 84.2873 39.4899 83.6171 39.6163C82.3798 39.8498 81.0182 39.6918 79.8985 40.3165Z" fill="#3F3D56"/>
<path d="M100.573 48.5201C100.455 48.5033 100.335 48.5279 100.237 48.5886C100.172 48.6528 100.134 48.735 100.128 48.8215C100.053 49.2036 100.142 49.5969 100.376 49.9226C100.496 50.0824 100.66 50.2106 100.853 50.2938C101.046 50.377 101.26 50.4122 101.474 50.3958C101.993 50.3362 102.376 49.9376 102.854 49.743C103.59 49.4434 106.717 48.9764 104.554 47.9255C103.809 47.5633 103.327 47.883 102.74 48.1215C102.071 48.4291 101.322 48.5669 100.573 48.5201V48.5201Z" fill="#3F3D56"/>
<path d="M119.519 39.7234C119.266 39.8162 119.055 39.9816 118.918 40.1938C118.855 40.3015 118.84 40.4269 118.877 40.5441C118.914 40.6613 118.999 40.7613 119.116 40.8234C119.21 40.8541 119.31 40.8684 119.41 40.8654L120.437 40.893C120.874 40.9047 121.419 40.9883 121.536 41.3664C121.623 41.6472 121.428 42.0079 121.663 42.2086C121.764 42.2788 121.885 42.3214 122.013 42.3311C122.351 42.4093 122.704 42.4195 123.047 42.3612C123.795 42.1809 123.402 41.7707 123.637 41.4055C123.997 40.8467 123.935 41.185 124.57 40.8648C125.038 40.6282 125.644 40.1992 125.253 39.5964C124.572 38.5481 120.522 39.273 119.519 39.7234Z" fill="#3F3D56"/>
<path d="M139.789 39.1962L139.193 39.2678C137.848 39.4292 136.495 39.5921 135.2 39.9552C135.761 40.1546 136.349 40.2844 136.949 40.3411C137.279 40.3556 137.607 40.3975 137.928 40.4663C138.5 40.6194 139.077 41.0149 139.629 40.8123C139.972 40.6867 140.084 40.3658 140.368 40.1958C140.564 40.0783 141.307 39.8883 141.39 39.7698C142.062 38.8116 140.305 39.1343 139.789 39.1962Z" fill="#3F3D56"/>
<path d="M142.408 41.6336C141.611 42.0342 140.872 42.521 140.207 43.083C139.927 43.3199 139.64 43.6145 139.666 43.9596C139.7 44.4182 140.243 44.6843 140.714 44.8635L142.62 45.5894C142.851 45.2962 142.64 44.8916 142.401 44.6035C142.162 44.3154 141.878 43.9821 141.983 43.6354C142.104 43.2398 142.64 43.105 143.09 43.0369C143.823 42.9258 145.799 42.9347 145.562 41.8726C145.282 40.6212 143.143 41.2639 142.408 41.6336Z" fill="#3F3D56"/>
<path d="M142.024 112.455C141.843 112.927 141.826 113.484 142.139 113.896C142.492 114.359 143.197 114.532 143.807 114.415C144.414 114.269 144.955 113.956 145.355 113.519C145.72 113.154 146.02 112.74 146.245 112.292C146.559 111.594 146.78 110.865 146.905 110.12L147.497 107.325C147.629 106.701 147.624 104.786 146.347 105.409C145.999 105.58 145.191 106.926 144.826 107.307C144.167 107.995 144.08 108.663 143.733 109.496C143.299 110.539 142.426 111.409 142.024 112.455Z" fill="#3F3D56"/>
<path d="M209.449 126.757C209.031 126.611 208.625 126.437 208.236 126.238C207.845 127.204 207.637 128.223 207.621 129.252L210.479 127.797C210.909 127.578 211.396 127.274 211.387 126.83C211.391 126.775 211.378 126.72 211.35 126.672C211.323 126.623 211.281 126.581 211.229 126.552C211.166 126.529 211.096 126.522 211.029 126.531C210.605 126.563 210.218 126.75 209.819 126.881C209.419 127.011 208.951 127.08 208.584 126.886" fill="#3F3D56"/>
<path d="M224.527 127.621C224.213 127.698 223.907 127.797 223.61 127.917C222.954 128.217 222.508 128.787 221.918 129.182C221.353 129.561 220.673 129.768 220.005 129.97C219.809 130.126 219.899 130.441 220.113 130.578C220.342 130.695 220.604 130.748 220.867 130.73C221.561 130.744 222.291 130.75 222.899 130.449C223.241 130.249 223.561 130.021 223.855 129.766C224.566 129.233 225.418 128.882 226.263 128.542C226.57 128.438 226.854 128.285 227.102 128.091C227.632 127.621 227.67 126.896 226.905 126.736C226.287 126.606 225.115 127.45 224.527 127.621Z" fill="#3F3D56"/>
<path d="M231.189 123.707C231.223 123.383 231.176 123.057 231.049 122.753C230.923 122.448 230.721 122.174 230.46 121.95C230.452 122.597 230.43 123.286 230.025 123.821C229.737 124.203 229.285 124.46 228.969 124.823C228.653 125.186 228.513 125.762 228.883 126.081C229.12 126.243 229.409 126.332 229.706 126.336C230.444 126.414 231.298 126.457 231.815 125.978C232.097 125.717 232.235 125.329 232.579 125.137C232.707 125.088 232.822 125.015 232.914 124.921C233.057 124.718 232.831 124.45 232.576 124.377C232.322 124.303 232.042 124.338 231.786 124.268C231.53 124.199 231.296 123.94 231.427 123.731" fill="#3F3D56"/>
<path d="M219.348 99.9812C218.961 100.066 218.56 100.087 218.165 100.044C217.508 99.9354 216.997 99.4903 216.467 99.1253C215.207 98.2623 213.675 97.7809 212.091 97.7503C210.651 97.7258 209.196 98.0769 207.782 97.8319C207.874 98.2943 208.314 98.6411 208.783 98.8473C209.253 99.0534 209.771 99.1571 210.243 99.3591C210.998 99.6857 211.597 100.246 211.93 100.938C212.082 101.257 212.178 101.604 212.408 101.882C212.878 102.452 213.77 102.577 214.557 102.53C215.582 102.469 216.654 102.204 217.608 102.548C218.338 102.811 218.861 103.385 219.471 103.832C220.08 104.279 220.939 104.611 221.639 104.288C220.912 104.077 220.279 103.662 219.833 103.103C219.387 102.545 219.15 101.874 219.159 101.187C219.845 101.243 221.823 101.221 221.716 100.172C221.626 99.2831 219.938 99.8853 219.348 99.9812Z" fill="#3F3D56"/>
<path d="M210.367 107.215C210.489 106.614 211.156 106.083 210.948 105.501C210.804 105.098 210.285 104.9 209.816 104.89C209.346 104.88 208.884 105.006 208.414 105.017C208.109 105.003 207.802 105.007 207.497 105.029C206.564 105.167 205.989 106.046 205.111 106.359C204.576 106.549 203.976 106.512 203.42 106.644C202.158 106.942 201.36 108.014 200.478 108.879C199.053 110.269 197.197 111.243 195.149 111.673C194.432 111.823 193.661 111.918 193.091 112.337C192.336 112.892 192.15 113.843 191.982 114.707C191.518 117.093 190.808 119.434 189.863 121.702L192.859 122.046C193.428 122.111 194.018 122.175 194.567 122.024C194.966 121.888 195.344 121.708 195.691 121.485C197.025 120.74 198.519 120.256 200.074 120.063C200.859 119.966 201.681 119.948 202.417 120.21C203.154 120.472 203.785 121.067 203.847 121.777C204.165 121.688 204.505 121.678 204.829 121.749C205.152 121.82 205.449 121.969 205.686 122.179C206.155 122.609 206.463 123.161 206.564 123.756C206.643 124.125 206.722 124.566 207.103 124.721C207.413 124.847 207.769 124.711 208.108 124.687C209.26 124.604 210.216 125.812 211.348 125.604C212.562 125.381 212.86 123.745 214.044 123.418C214.725 123.23 215.679 123.458 216.005 122.889C216.292 122.388 215.719 121.809 215.778 121.247C215.851 120.556 216.758 120.262 217.457 119.967C219.868 118.95 221.012 116.032 219.844 113.88C219.152 112.604 217.79 111.601 217.538 110.2C217.345 109.122 217.817 107.865 217.053 107.017C216.664 106.585 216.006 106.347 215.775 105.832C215.629 105.508 215.688 105.14 215.609 104.798C215.531 104.455 215.199 104.097 214.823 104.186C213.732 104.444 213.383 107.476 212.799 108.212C211.911 109.332 210.087 108.595 210.367 107.215Z" fill="#3F3D56"/>
<path d="M190.194 101.127C189.821 101.033 189.414 100.94 189.057 101.075C188.699 101.209 188.491 101.681 188.777 101.915C191.021 101.836 193.279 101.758 195.504 102.032C198.067 102.348 200.603 103.13 203.178 102.9C201.707 102.51 200.212 102.198 198.701 101.966L196.181 101.533C195.505 101.406 194.821 101.311 194.134 101.249C192.696 101.142 191.608 101.484 190.194 101.127Z" fill="#3F3D56"/>
<path d="M192.441 94.0987C192.254 94.0847 192.024 94.0727 191.927 94.2167C191.835 94.3543 191.941 94.5361 191.891 94.6905C191.823 94.9013 191.516 94.9551 191.275 94.9264C191.033 94.8977 190.771 94.829 190.557 94.9339C190.448 95.0007 190.366 95.0973 190.324 95.2094C190.282 95.3214 190.281 95.4428 190.321 95.5554C190.409 95.7788 190.551 95.9819 190.736 96.1501C191.053 96.5093 191.414 96.835 191.813 97.1211C192.584 97.6331 193.629 97.8798 194.114 98.6229C194.183 98.7669 194.288 98.8944 194.422 98.995C194.655 99.1278 194.959 99.0268 195.21 98.9236L196.09 98.562C196.249 98.5107 196.39 98.4241 196.502 98.3104C196.703 98.065 196.579 97.7162 196.41 97.4519C196.242 97.1877 196.026 96.9141 196.062 96.6111C196.126 96.0709 196.899 95.8642 197.216 95.402C197.537 94.936 197.328 94.3357 197.365 93.7889C197.408 93.1495 197.855 92.3178 197.136 91.8401C196.525 91.4341 195.941 91.8093 195.503 92.2575C194.578 93.2027 194.141 94.2264 192.441 94.0987Z" fill="#3F3D56"/>
<path d="M197.782 84.5452C198.083 85.0625 198.709 85.3713 199.037 85.8751C199.392 86.4212 199.351 87.1267 199.737 87.656C200.132 88.1991 200.927 88.4874 201.149 89.1051C201.391 89.7795 200.842 90.5991 201.279 91.1883C201.361 91.2846 201.464 91.3646 201.582 91.4233C201.7 91.4819 201.83 91.5179 201.964 91.529C202.098 91.5401 202.233 91.526 202.361 91.4876C202.489 91.4493 202.606 91.3875 202.706 91.3062C202.89 91.1255 202.989 90.8871 202.981 90.6419C202.973 90.3966 202.859 90.1639 202.663 89.9934C202.403 89.7809 202.031 89.6891 201.815 89.4409C201.702 89.2976 201.627 89.1333 201.595 88.9602C201.478 88.4608 201.496 87.9432 201.651 87.4519C201.708 87.3272 201.723 87.1897 201.693 87.0574C201.595 86.8027 201.212 86.7847 200.943 86.6665C200.332 86.3982 200.347 85.6226 200.453 85.0186C200.382 85.4207 198.789 84.7368 198.623 84.509C198.291 84.0565 198.472 83.1836 198.406 82.6836C197.691 82.9936 197.415 83.9127 197.782 84.5452Z" fill="#3F3D56"/>
<path d="M181.736 92.505C181.442 92.2091 180.999 91.8995 180.605 92.0779C180.305 92.2141 180.222 92.5883 180.34 92.8719C180.483 93.1474 180.704 93.3844 180.981 93.5595C181.802 94.1687 182.687 94.7185 183.403 95.4267C184.686 96.694 185.365 98.404 186.759 99.5715C187.04 99.8421 187.411 100.023 187.816 100.086C188.223 100.12 188.679 99.8859 188.725 99.5213C188.764 99.221 188.531 98.9523 188.304 98.7297C187.762 98.1998 187.169 97.712 186.657 97.1583C186.421 96.9456 186.273 96.6668 186.237 96.368C186.234 96.0698 186.536 95.7578 186.858 95.8316C186.467 95.7418 186.177 95.1565 185.604 95.0465C185.125 94.9546 185.009 95.2214 184.439 95.0014C183.351 94.5819 182.498 93.2718 181.736 92.505Z" fill="#3F3D56"/>
<path d="M207.291 63.6866C206.979 63.6032 206.672 63.5047 206.372 63.3915C205.565 63.1735 204.496 63.7073 204.604 64.4593C204.675 64.9589 205.192 65.2958 205.478 65.7292C205.901 66.3719 205.789 67.1871 205.566 67.9069C205.511 68.1297 205.407 68.3405 205.26 68.5265C205.055 68.7229 204.809 68.8818 204.537 68.9946C203.446 69.5445 202.485 70.2793 201.705 71.1582C201.62 71.2394 201.561 71.3395 201.534 71.4482C201.495 71.7021 201.779 71.887 201.94 72.0988C202.296 72.5692 202.039 73.2022 202.074 73.7705C202.068 73.8509 202.086 73.9312 202.125 74.0038C202.163 74.0763 202.222 74.1388 202.295 74.1852C202.51 74.2834 202.765 74.1167 202.881 73.927C203.267 73.2974 202.976 72.2869 203.701 71.9833C203.838 71.9259 204.005 71.9017 204.096 71.7934C204.241 71.6215 204.101 71.3671 204.175 71.1617C204.285 70.8533 204.754 70.8395 205.114 70.8531C205.734 70.8765 206.354 70.8023 206.945 70.6339C207.178 70.5842 207.388 70.4745 207.552 70.3181C207.768 70.0749 207.749 69.7291 207.706 69.4199C207.489 67.8784 206.946 66.3885 206.106 65.0306C206.743 65.1037 207.436 65.1671 207.985 64.8687C208.293 64.7016 208.662 64.2018 208.509 63.8617C208.268 63.3238 207.832 63.7765 207.291 63.6866Z" fill="#3F3D56"/>
<path d="M125.661 72.1647C125.738 72.5322 125.813 72.9192 125.679 73.2731C125.545 73.6271 125.123 73.9228 124.726 73.8144C124.417 73.7302 124.238 73.451 124.019 73.2381C122.8 72.0544 120.049 72.7397 119.296 71.2752C118.988 70.6775 119.197 69.9614 118.988 69.3304C118.855 68.9658 118.592 68.6509 118.239 68.4354C117.886 68.2198 117.464 68.1158 117.038 68.1396C116.65 68.19 116.272 68.2915 115.917 68.4407C113.535 69.2984 111.035 69.8608 108.485 70.1123C108 70.1389 107.521 70.2173 107.057 70.346C106.01 70.6874 105.295 71.5604 104.785 72.4512C104.276 73.342 103.9 74.3065 103.218 75.0979C102.5 75.9297 101.495 76.5122 100.557 77.1422C100.196 77.3516 99.8954 77.6351 99.6798 77.9695C99.4765 78.3448 99.488 78.7814 99.5038 79.1986L99.6954 84.2665C99.7201 84.9184 99.751 85.5935 100.075 86.1769C100.481 86.9053 101.281 87.3824 101.836 88.0259C102.403 88.6872 102.698 89.5042 102.671 90.3387C102.66 90.6742 102.623 91.071 102.913 91.2817C103.09 91.3848 103.297 91.4383 103.507 91.4354L111.13 91.9965C112.471 92.0952 113.957 92.2574 114.832 93.1762C115.246 93.6098 115.577 94.2333 116.21 94.2799C116.482 94.2998 116.746 94.1996 117.017 94.1803C117.702 94.1315 118.304 94.599 118.684 95.114C119.259 95.899 119.52 96.8364 119.424 97.7723C119.362 98.3598 119.159 98.9309 119.115 99.5198C118.949 101.76 121.061 103.707 121.102 105.952C121.126 107.273 120.429 108.507 119.749 109.678C120.846 111.172 119.948 113.162 120.385 114.909C120.799 116.567 122.336 117.864 122.719 119.528C122.894 120.29 122.904 121.227 123.651 121.619C123.979 121.763 124.342 121.828 124.706 121.809C126.901 121.832 129.071 121.388 131.038 120.512C131.962 120.1 132.919 119.485 133.08 118.57C133.21 117.831 132.794 117.005 133.217 116.362C133.717 115.604 134.996 115.664 135.731 115.081C136.923 114.136 135.993 112.333 136.476 110.971C136.911 109.747 138.405 109.096 139.146 107.997C139.437 107.525 139.647 107.015 139.766 106.485C140.106 105.22 140.317 103.929 140.397 102.629C140.417 101.839 140.482 101.051 140.591 100.267C141.39 95.8045 146.296 92.8162 147.888 88.5292C148.041 88.1197 148.112 87.5744 147.707 87.3427C147.467 87.2397 147.194 87.214 146.936 87.2701L143.422 87.6685C142.985 87.718 142.523 87.7643 142.122 87.6012C141.721 87.4382 141.434 86.9822 141.646 86.6359C142.243 85.6636 141.015 84.4351 140.47 83.4387C139.001 80.7559 137.252 78.2047 135.246 75.8197C135.118 75.697 135.037 75.54 135.017 75.3725L136.014 75.4024C135.678 74.316 135.122 73.1272 133.949 72.7298C133.287 72.5058 132.555 72.5832 131.849 72.6179C129.828 72.7172 127.662 72.4428 125.661 72.1647Z" fill="#3F3D56"/>
<path d="M131.851 47.6831C132.38 48.1882 132.972 48.7237 133.738 48.8117C135.089 48.9672 136.061 47.7103 136.68 46.6186C136.702 46.8969 136.845 47.1562 137.077 47.3413C137.31 47.5265 137.613 47.6229 137.923 47.61C138.257 47.5595 138.575 47.4475 138.858 47.2811C141.536 45.9651 144.535 45.2678 147.587 45.2519C147.557 45.044 147.615 44.8337 147.748 44.6616C147.881 44.4895 148.08 44.3678 148.307 44.32C148.927 44.2093 149.486 44.6917 149.785 45.1928C150.084 45.694 150.271 46.2748 150.746 46.6499C151.222 47.0249 152.143 47.0086 152.33 46.4654C152.511 45.944 151.907 45.4993 151.405 45.1919C150.903 44.8844 150.374 44.3154 150.712 43.8617C153.276 43.3513 155.856 42.839 158.479 42.7375C158.926 42.7515 159.371 42.6826 159.787 42.535C160.187 42.3584 160.505 41.9576 160.397 41.5686C159.825 41.6897 159.225 41.6546 158.675 41.468C158.124 41.2813 157.648 40.9515 157.307 40.5205C160.948 40.2504 164.82 40.0201 168.046 41.5606C168.433 42.308 166.46 42.9299 166.988 43.604C167.156 43.819 167.493 43.8442 167.786 43.8491C170.028 43.8865 172.283 43.9233 174.499 43.6189C175.309 43.5076 176.127 43.3506 176.941 43.4408C178.295 43.591 179.454 44.4039 180.786 44.6689C181.329 44.7767 181.937 44.7804 182.394 44.4967C182.852 44.213 183.048 43.5669 182.673 43.1981C183.928 42.0921 186.011 42.3662 187.666 42.8957C189.321 43.4252 190.889 44.2791 192.641 44.3971C193.898 44.4817 195.172 44.1778 196.413 44.371C197.193 44.4924 197.919 44.8045 198.682 44.9962C200.124 45.3589 201.649 45.2823 203.146 45.2998C206.967 45.3461 210.745 46.0213 214.295 47.292C214.756 47.4272 215.18 47.652 215.534 47.9505C215.864 48.2686 216.033 48.7629 215.811 49.1496L212.143 48.6677C212.488 49.2795 213.382 49.3838 214.109 49.5948C214.835 49.8059 215.587 50.527 215.151 51.09C214.364 50.8647 213.651 51.5721 213.254 52.2229C212.857 52.8737 212.372 53.6532 211.548 53.6928C210.81 53.7283 209.917 53.163 209.436 53.6678C210.1 54.422 210.67 55.2406 211.133 56.1082C211.608 56.999 211.947 58.1213 211.304 58.9227C211.203 59.0658 211.05 59.1727 210.871 59.2252C210.346 59.3447 210.005 58.7673 209.629 58.4173C209.154 57.9764 208.437 57.8515 207.795 57.6446C207.153 57.4378 206.476 57.031 206.426 56.4192C206.395 56.0385 206.618 55.6846 206.783 55.3328C207.059 54.7398 207.18 54.0974 207.136 53.4555C207.1 52.9392 206.939 52.402 206.527 52.0412C206.115 51.6804 205.403 51.5659 204.96 51.8964C204.753 52.0506 204.588 52.2972 204.319 52.3064C203.846 52.3227 203.482 51.5796 203.1 51.8333C203.145 52.1036 203.083 52.3794 202.924 52.6126C201.786 53.5026 200.038 53.1261 198.571 53.4405C197.874 53.62 197.206 53.8823 196.585 54.2205C196.353 54.3098 196.155 54.4589 196.017 54.649C195.834 54.9691 196.036 55.3789 196.359 55.5917C196.701 55.7805 197.086 55.8986 197.485 55.9374C199.274 56.242 201.088 56.7136 202.5 57.7467C203.912 58.7798 204.838 60.4876 204.391 62.0745L200.864 59.0437C200.998 60.3162 201.074 61.5923 201.092 62.8719C201.115 63.1217 201.077 63.373 200.981 63.6082C200.729 64.1077 200.048 64.2757 199.451 64.386C199.284 64.4144 199.127 64.474 198.988 64.5611C198.85 64.6481 198.733 64.7605 198.646 64.8909C198.559 65.0213 198.504 65.1668 198.484 65.3178C198.464 65.4688 198.48 65.6219 198.53 65.767C198.743 66.3889 199.272 66.8738 199.756 67.357C200.24 67.8401 200.717 68.3892 200.781 69.0373C200.844 69.6853 200.3 70.4158 199.579 70.3707C199.032 70.3366 198.626 69.8961 198.392 69.4499C198.159 69.0036 198.02 68.5064 197.67 68.1272C196.608 66.9794 194.225 67.4712 193.274 66.2476C193.032 66.4948 192.864 66.7936 192.786 67.1156C192.708 67.4376 192.723 67.7722 192.83 68.0875C193.272 67.8385 193.877 68.0699 194.21 68.4317C194.542 68.7934 194.699 69.2573 194.96 69.6636C195.312 70.2119 195.872 70.698 195.921 71.3297C195.908 71.5685 195.913 71.8079 195.935 72.0462C196.022 72.4289 196.382 72.7037 196.631 73.0236C197.211 73.7679 197.183 74.7905 196.809 75.6351C196.435 76.4796 195.763 77.1853 195.097 77.8695C193.935 79.0646 192.748 80.2526 191.37 81.2451C190.977 81.5283 190.557 81.8067 190.312 82.2026C190.067 82.5985 190.055 83.1542 190.431 83.4554C190.162 83.4675 189.679 83.5867 189.41 83.5988C189.315 82.6272 189.294 81.6509 189.348 80.6768C188.285 80.2179 187.141 81.4469 187.278 82.5C187.415 83.553 188.262 84.3981 188.865 85.3092C189.306 85.9754 189.634 86.7523 189.487 87.5162C189.339 88.2802 188.581 88.9849 187.722 88.9176C186.356 88.8104 185.785 87.0466 184.432 86.8448C184.313 86.8196 184.187 86.8308 184.076 86.8765C183.875 86.9757 183.84 87.2173 183.829 87.4231C183.773 88.433 183.726 89.483 184.164 90.4141C184.805 91.7762 186.462 92.9202 186.114 94.366C184.242 93.5834 183.269 91.6953 182.827 89.8817C182.385 88.0681 182.311 86.1642 181.519 84.4497C180.918 85.1431 179.653 84.5699 179.104 83.8425C178.583 83.1529 178.262 82.3551 177.756 81.6562C177.251 80.9573 176.476 80.3315 175.55 80.293C174.579 80.2527 173.737 80.852 172.996 81.4182C172.387 81.8838 171.762 82.3677 171.406 83.0113C170.888 83.9479 171.024 85.052 170.999 86.0978C170.972 87.2284 170.705 88.4213 169.848 89.249C168.992 90.0767 167.41 90.365 166.465 89.619C165.972 89.2296 165.733 88.6477 165.52 88.0892C164.494 85.397 163.64 82.6544 162.961 79.8747C162.803 80.5091 162.183 81.3268 161.591 80.9531C161.459 80.8527 161.351 80.728 161.276 80.5874C160.172 78.9048 158.128 77.8956 156.062 77.2905C153.997 76.6854 151.824 76.4031 149.781 75.7381C148.637 75.3653 147.543 74.8755 146.523 74.2785C146.263 74.6222 146.111 75.0227 146.083 75.4378C146.056 75.8528 146.153 76.2668 146.366 76.6359C146.819 77.3574 147.845 77.7748 148.722 77.5226C149.176 77.3923 149.559 77.1091 150.009 76.9693C150.459 76.8294 151.063 76.8981 151.26 77.288C151.448 77.6612 151.163 78.1127 151.304 78.5024C151.52 79.0959 152.515 79.1416 152.863 79.6817C153.122 80.0836 152.909 80.6172 152.539 80.9414C152.169 81.2657 151.676 81.4435 151.225 81.6692C149.76 82.4016 148.719 83.6518 147.439 84.6245C146.159 85.5972 144.353 86.3074 142.828 85.6835C143.192 84.0277 140.998 82.8121 140.595 81.1639C140.462 80.6214 140.531 80.0451 140.341 79.5164C140.067 78.751 139.312 78.2247 138.692 77.6446C137.941 76.9334 137.356 76.0941 136.971 75.1761C136.586 74.2581 136.41 73.2802 136.452 72.2999C136.485 71.6187 136.624 70.9264 136.452 70.2624C136.279 69.5985 135.668 68.9558 134.911 68.9859C133.181 69.0546 131.001 69.1703 130.094 67.844C129.77 67.3707 129.629 66.6774 130.097 66.3147C130.427 66.0589 130.915 66.083 131.349 66.1214L135.247 66.4662C136.159 66.5469 137.144 66.6135 137.926 66.1848C138.709 65.7562 139.048 64.6184 138.323 64.1141C137.794 63.7457 136.846 63.7656 136.692 63.1798C136.564 62.6919 137.164 62.1383 136.84 61.7305C136.607 61.4382 136.085 61.5193 135.768 61.7385C135.451 61.9576 135.221 62.2782 134.867 62.4441C134.245 62.7352 133.501 62.4582 132.832 62.2699C132.163 62.0816 131.266 62.0656 130.941 62.6245C130.578 63.2497 131.263 64.0688 130.903 64.6952C130.427 65.5234 128.814 65.0519 128.145 65.7643C127.377 66.5817 128.667 67.8006 128.408 68.8449C128.078 68.9921 127.71 69.0597 127.342 69.0411C126.974 69.0225 126.617 68.9183 126.307 68.7388C126.002 68.5522 125.759 68.2948 125.604 67.994C125.449 67.6931 125.387 67.36 125.426 67.0301C125.49 66.5603 125.762 66.0808 125.58 65.6369C125.432 65.2779 125.031 65.0643 124.659 64.8792L120.871 62.9967C120.519 63.5834 120.964 64.3108 121.52 64.7515C122.076 65.1922 122.772 65.5241 123.138 66.104C123.369 66.5058 123.421 66.9718 123.282 67.4068C123.144 67.8418 122.827 68.213 122.395 68.4446C122.341 68.4782 122.279 68.5009 122.214 68.5111C122.149 68.5212 122.083 68.5187 122.019 68.5035C121.959 68.4716 121.906 68.4291 121.864 68.3785C121.823 68.3279 121.792 68.2703 121.776 68.209C121.107 66.6709 120.104 65.1543 118.5 64.3508C116.895 63.5473 114.59 63.7125 113.538 65.066C113.288 65.3875 113.121 65.754 112.903 66.0939C111.747 67.8998 109.267 68.7549 106.951 68.699C106.724 68.7103 106.499 68.6627 106.302 68.5618C105.927 68.3293 105.944 67.8359 106.001 67.43L106.244 65.7074C106.293 65.3615 106.364 64.9791 106.668 64.7632C107.098 64.4588 107.717 64.6509 108.263 64.6438C108.677 64.6264 109.075 64.4949 109.403 64.2672C109.731 64.0394 109.974 63.7265 110.097 63.3707C110.208 63.0114 110.207 62.6319 110.095 62.2729C109.984 61.914 109.765 61.5893 109.463 61.3338C109.213 61.1222 108.877 60.8564 109.009 60.5712C109.062 60.4923 109.133 60.4248 109.218 60.3734C109.303 60.3219 109.399 60.2879 109.501 60.2735C110.482 60.0172 111.519 59.95 112.485 59.6475C113.45 59.345 114.386 58.7261 114.615 57.8301C114.685 57.5555 114.717 57.2229 114.991 57.0868C115.128 57.0345 115.276 57.0074 115.426 57.0069C115.949 56.9399 116.425 56.6992 116.761 56.3322C117.097 55.9651 117.268 55.4982 117.24 55.0235C117.703 54.7328 118.351 54.9466 118.799 55.2558C119.246 55.565 119.641 55.9735 120.186 56.1068C121.2 56.3552 122.181 55.5471 123.233 55.5434C123.675 55.5418 124.133 55.6825 124.549 55.5476C124.971 55.4109 125.223 55.0333 125.547 54.7543C125.87 54.4753 126.438 54.3052 126.737 54.6057L126.483 52.91C126.995 53.0264 127.53 53.0429 128.05 52.9583C128.57 52.8737 129.065 52.69 129.499 52.4195L126.21 51.4198C126.095 51.394 125.989 51.3432 125.902 51.2718C125.663 51.0402 125.9 50.6792 126.095 50.4159C126.56 49.7861 126.638 48.7485 125.873 48.4349C125.351 48.2208 124.751 48.4778 124.25 48.7291L121.849 49.9332C121.772 50.3437 122.331 50.5764 122.676 50.8529C122.886 51.0201 123.034 51.2404 123.101 51.4848C123.169 51.7292 123.153 51.9862 123.055 52.2221C122.957 52.458 122.782 52.6618 122.553 52.8066C122.324 52.9515 122.051 53.0307 121.771 53.0337C121.93 53.2186 122.039 53.4331 122.093 53.6614C122.146 53.8896 122.142 54.1257 122.08 54.3523L120.465 54.4568C120.283 54.4896 120.095 54.4565 119.941 54.3648C119.768 54.2268 119.791 53.9849 119.751 53.7802C119.655 53.2862 119.117 52.9399 118.568 52.8511C118.019 52.7623 117.457 52.8761 116.913 52.9885C116.683 53.0632 116.429 53.0579 116.202 52.9737C116.072 52.8978 115.973 52.7856 115.921 52.6544C115.683 52.1347 115.905 51.5239 116.288 51.0794C116.671 50.635 117.195 50.3101 117.666 49.9401C118.791 49.0521 119.618 47.8987 120.053 46.6103C120.942 46.2751 121.863 45.8198 122.752 45.4847C124.124 44.8603 125.661 44.5924 127.193 44.711L130.205 44.7627C131.096 44.778 132.012 44.7977 132.837 45.1034C133.661 45.4091 134.386 46.0704 134.443 46.8709C134.46 46.9616 134.451 47.0546 134.418 47.1414C134.384 47.2282 134.326 47.3058 134.25 47.367C134.133 47.4241 134.001 47.4509 133.869 47.4442C133.037 47.4705 132.683 47.6568 131.851 47.6831Z" fill="#3F3D56"/>
<path d="M107.843 56.1725C107.961 56.0723 108.046 55.9449 108.088 55.8043C108.13 55.6636 108.129 55.5152 108.084 55.3753C107.797 55.2759 107.486 55.2504 107.184 55.3016C106.882 55.3528 106.603 55.4788 106.376 55.6652C106.198 55.8275 106.044 56.0103 105.919 56.2089C105.523 56.7897 105.173 57.4833 105.403 58.1325C105.421 58.2033 105.456 58.27 105.503 58.3287C105.551 58.3875 105.611 58.437 105.681 58.4745C105.783 58.5116 105.894 58.5272 106.005 58.5202C106.441 58.5197 106.876 58.4956 107.309 58.448C107.575 58.4188 107.884 58.3512 107.986 58.1289C108.121 57.8365 107.795 57.5057 107.89 57.201C107.953 57.0647 108.048 56.9424 108.168 56.8425C108.228 56.7922 108.274 56.7301 108.303 56.6611C108.331 56.592 108.341 56.5179 108.332 56.4447C108.294 56.3017 108.05 56.2206 107.963 56.3448" fill="#3F3D56"/>
<path d="M110.104 53.5364C109.717 53.4564 109.317 53.4338 108.922 53.4696C108.835 53.4673 108.748 53.485 108.67 53.5211C108.595 53.571 108.54 53.6422 108.515 53.7232C108.431 53.9643 108.452 54.2248 108.572 54.4529C108.693 54.6809 108.905 54.8598 109.165 54.9539C109.307 54.9833 109.443 55.0324 109.568 55.0996C109.903 55.3329 109.689 55.8097 109.753 56.1859C109.824 56.6084 110.279 56.9631 110.195 57.3837C110.129 57.7152 109.736 57.9776 109.799 58.3094C109.866 58.6569 110.356 58.7613 110.747 58.7891C110.973 58.8248 111.206 58.8008 111.418 58.7199C111.63 58.5895 111.781 58.393 111.842 58.1683C112.002 57.74 112.069 57.288 112.04 56.837C112.038 56.6318 111.981 56.4301 111.873 56.2493C111.755 56.1061 111.625 55.9718 111.483 55.8476C110.734 55.0643 111.522 53.8958 110.104 53.5364Z" fill="#3F3D56"/>
<path opacity="0.8" d="M208.572 114.9C208.572 114.9 151.22 85.2935 126.529 90.9033C126.529 90.9033 74.2022 95.9676 68.1378 107.109C68.1378 107.109 51.504 60.3615 45.4396 58.8032" stroke="#6C63FF" stroke-width="2" stroke-miterlimit="10"/>
<path opacity="0.8" d="M68.1378 107.109C77.7542 84.0471 164.389 58.4917 164.389 58.4917C152.087 61.2966 126.529 90.9034 126.529 90.9034C126.529 90.9034 72.4695 55.531 45.4395 58.8033C45.4395 58.8033 164.475 62.3094 208.572 114.9" stroke="#6C63FF" stroke-width="2" stroke-miterlimit="10"/>
<path d="M45.4396 61.0629C46.8271 61.0629 47.952 60.0513 47.952 58.8034C47.952 57.5555 46.8271 56.5439 45.4396 56.5439C44.052 56.5439 42.9272 57.5555 42.9272 58.8034C42.9272 60.0513 44.052 61.0629 45.4396 61.0629Z" fill="#6C63FF"/>
<path d="M68.1378 109.369C69.5253 109.369 70.6502 108.357 70.6502 107.109C70.6502 105.861 69.5253 104.85 68.1378 104.85C66.7502 104.85 65.6254 105.861 65.6254 107.109C65.6254 108.357 66.7502 109.369 68.1378 109.369Z" fill="#6C63FF"/>
<path d="M164.389 60.7514C165.776 60.7514 166.901 59.7398 166.901 58.4919C166.901 57.244 165.776 56.2324 164.389 56.2324C163.001 56.2324 161.876 57.244 161.876 58.4919C161.876 59.7398 163.001 60.7514 164.389 60.7514Z" fill="#6C63FF"/>
<path d="M208.572 117.16C209.96 117.16 211.085 116.148 211.085 114.901C211.085 113.653 209.96 112.641 208.572 112.641C207.185 112.641 206.06 113.653 206.06 114.901C206.06 116.148 207.185 117.16 208.572 117.16Z" fill="#6C63FF"/>
<path d="M126.529 93.163C127.917 93.163 129.042 92.1514 129.042 90.9035C129.042 89.6556 127.917 88.644 126.529 88.644C125.142 88.644 124.017 89.6556 124.017 90.9035C124.017 92.1514 125.142 93.163 126.529 93.163Z" fill="#6C63FF"/>
</g>
<defs>
<clipPath id="clip0">
<rect width="247" height="165" fill="white" transform="translate(0.5 0.155762)"/>
</clipPath>
</defs>
</svg>
